<?xml version="1.0" encoding="utf-8"?>
<!-- Generator: Adobe Illustrator 25.1.0, SVG Export Plug-In . SVG Version: 6.00 Build 0)  -->
<svg version="1.1" id="Layer_1" xmlns="http://www.w3.org/2000/svg" xmlns:xlink="http://www.w3.org/1999/xlink" x="0px" y="0px"
	 viewBox="0 0 100 90" style="enable-background:new 0 0 100 90;" xml:space="preserve">
<style type="text/css">
	.st0{display:none;}
	.st1{display:inline;}
</style>
<g class="st0">
	<path class="st1" d="M468.8,589.8H-769c-2.1,0-3.8-1.7-3.8-3.8V-601.2c0-2.1,1.7-3.8,3.8-3.8H468.8c2.1,0,3.8,1.7,3.8,3.8V586
		C472.6,588.1,470.9,589.8,468.8,589.8z"/>
</g>
<g>
	<g>
		<path d="M50,0C25.2,0,5,20.2,5,45s20.2,45,45,45s45-20.2,45-45S74.8,0,50,0z M50,81c-19.9,0-36-16.2-36-36S30.1,9,50,9
			s36,16.2,36,36S69.9,81,50,81z"/>
		<path d="M54.4,43.7c0-0.2,0.1-0.5,0.1-0.7V23.4c0-2.5-2-4.5-4.5-4.5s-4.5,2-4.5,4.5V43c0,0.4,0,4.7,1.4,6l13.9,12.5
			c0.9,0.8,1.9,1.1,3,1.1c1.2,0,2.5-0.5,3.4-1.5c1.7-1.9,1.5-4.7-0.3-6.4L54.4,43.7z"/>
	</g>
</g>
</svg>
