<?xml version="1.0" encoding="utf-8"?>
<!-- Generator: Adobe Illustrator 25.1.0, SVG Export Plug-In . SVG Version: 6.00 Build 0)  -->
<svg version="1.1" id="Layer_1" xmlns="http://www.w3.org/2000/svg" xmlns:xlink="http://www.w3.org/1999/xlink" x="0px" y="0px"
	 viewBox="0 0 59 57" style="enable-background:new 0 0 59 57;" xml:space="preserve">
<style type="text/css">
	.st0{fill:#F2994A;}
</style>
<path class="st0" d="M35.9,31.2l2.7-2.9c4.5,1.9,10.6,0.1,15.2-4.5c5.7-5.7,6.9-13.7,2.8-17.8S44.4,3.1,38.7,8.8
	c-4.6,4.6-6.4,10.7-4.5,15.2l-2.9,2.7L4.9,0.3c-0.3-0.3-0.8-0.4-1.2,0c-5.3,5.3-4.9,14.2,0.9,20l16.3,16.3L6.7,49.8
	c-1.5,1.5-1.5,4,0,5.5l0.6,0.6c1.5,1.5,4,1.5,5.5,0l14.8-15.8l0,0c0.1-0.1,0.3-0.2,0.4-0.3l2-2l17.7,17.6c1.4,1.4,3.8,1.4,5.2,0
	l1-0.9c1.4-1.4,1.4-3.8,0-5.2L35.9,31.2z"/>
</svg>
